<svg width="128" height="6" viewBox="0 0 128 6" fill="none" xmlns="http://www.w3.org/2000/svg">
<path d="M2.17105 5.59124V3.40987L2.4 4.03987L0 0.0787498H1.09737L3.02368 3.26812H2.40789L4.35 0.0787498H5.36053L2.96053 4.03987L3.19737 3.40987V5.59124H2.17105Z" fill="#2F302C"/>
<path d="M9.80415 5.66999C9.37257 5.66999 8.97521 5.59912 8.61205 5.45737C8.24889 5.31562 7.9331 5.11874 7.66468 4.86674C7.39626 4.60949 7.18836 4.31024 7.04099 3.969C6.89363 3.6225 6.81994 3.2445 6.81994 2.835C6.81994 2.4255 6.89363 2.05012 7.04099 1.70887C7.18836 1.36237 7.39626 1.06312 7.66468 0.811124C7.9331 0.553875 8.24889 0.354375 8.61205 0.212625C8.97521 0.0708751 9.36994 0 9.79626 0C10.2278 0 10.6226 0.0708751 10.9805 0.212625C11.3436 0.354375 11.6594 0.553875 11.9278 0.811124C12.1963 1.06312 12.4042 1.36237 12.5515 1.70887C12.6989 2.05012 12.7726 2.4255 12.7726 2.835C12.7726 3.2445 12.6989 3.6225 12.5515 3.969C12.4042 4.31549 12.1963 4.61474 11.9278 4.86674C11.6594 5.11874 11.3436 5.31562 10.9805 5.45737C10.6226 5.59912 10.2305 5.66999 9.80415 5.66999ZM9.79626 4.77224C10.0752 4.77224 10.3331 4.72499 10.5699 4.63049C10.8068 4.53599 11.012 4.40212 11.1857 4.22887C11.3594 4.05037 11.4936 3.84562 11.5884 3.61462C11.6884 3.37837 11.7384 3.1185 11.7384 2.835C11.7384 2.5515 11.6884 2.29425 11.5884 2.06325C11.4936 1.827 11.3594 1.62225 11.1857 1.449C11.012 1.2705 10.8068 1.134 10.5699 1.0395C10.3331 0.944999 10.0752 0.897749 9.79626 0.897749C9.51731 0.897749 9.25942 0.944999 9.02257 1.0395C8.791 1.134 8.58573 1.2705 8.40678 1.449C8.2331 1.62225 8.09626 1.827 7.99626 2.06325C7.90152 2.29425 7.85415 2.5515 7.85415 2.835C7.85415 3.11325 7.90152 3.3705 7.99626 3.60675C8.09626 3.843 8.2331 4.05037 8.40678 4.22887C8.58047 4.40212 8.78573 4.53599 9.02257 4.63049C9.25942 4.72499 9.51731 4.77224 9.79626 4.77224Z" fill="#2F302C"/>
<path d="M17.6578 5.66999C16.8999 5.66999 16.3052 5.45737 15.8736 5.03212C15.4473 4.60687 15.2341 3.99262 15.2341 3.18937V0.0787498H16.2604V3.15C16.2604 3.717 16.3815 4.12912 16.6236 4.38637C16.871 4.64362 17.2183 4.77224 17.6657 4.77224C18.1131 4.77224 18.4578 4.64362 18.6999 4.38637C18.942 4.12912 19.0631 3.717 19.0631 3.15V0.0787498H20.0736V3.18937C20.0736 3.99262 19.8578 4.60687 19.4262 5.03212C18.9999 5.45737 18.4104 5.66999 17.6578 5.66999Z" fill="#2F302C"/>
<path d="M22.932 5.59124V0.0787498H25.2057C25.6951 0.0787498 26.1136 0.1575 26.4609 0.315C26.8136 0.4725 27.0846 0.698249 27.2741 0.992249C27.4636 1.28625 27.5583 1.63537 27.5583 2.03962C27.5583 2.44387 27.4636 2.793 27.2741 3.087C27.0846 3.37575 26.8136 3.59887 26.4609 3.75637C26.1136 3.90862 25.6951 3.98475 25.2057 3.98475H23.5004L23.9583 3.52012V5.59124H22.932ZM26.5478 5.59124L25.1504 3.591H26.2478L27.653 5.59124H26.5478ZM23.9583 3.63037L23.5004 3.14212H25.1583C25.6109 3.14212 25.9504 3.045 26.1767 2.85075C26.4083 2.6565 26.5241 2.38612 26.5241 2.03962C26.5241 1.68787 26.4083 1.4175 26.1767 1.2285C25.9504 1.0395 25.6109 0.944999 25.1583 0.944999H23.5004L23.9583 0.440999V3.63037Z" fill="#2F302C"/>
<path d="M34.67 2.6145H37.4252V3.48075H34.67V2.6145ZM34.7568 5.59124H33.7305V0.0787498H37.7647V0.937124H34.7568V5.59124Z" fill="#2F302C"/>
<path d="M42.5546 5.66999C41.7967 5.66999 41.202 5.45737 40.7704 5.03212C40.3441 4.60687 40.1309 3.99262 40.1309 3.18937V0.0787498H41.1572V3.15C41.1572 3.717 41.2783 4.12912 41.5204 4.38637C41.7678 4.64362 42.1151 4.77224 42.5625 4.77224C43.0099 4.77224 43.3546 4.64362 43.5967 4.38637C43.8388 4.12912 43.9599 3.717 43.9599 3.15V0.0787498H44.9704V3.18937C44.9704 3.99262 44.7546 4.60687 44.323 5.03212C43.8967 5.45737 43.3072 5.66999 42.5546 5.66999Z" fill="#2F302C"/>
<path d="M48.8496 5.59124V0.944999H47.018V0.0787498H51.7075V0.944999H49.8759V5.59124H48.8496Z" fill="#2F302C"/>
<path d="M56.1749 5.66999C55.417 5.66999 54.8222 5.45737 54.3907 5.03212C53.9644 4.60687 53.7512 3.99262 53.7512 3.18937V0.0787498H54.7775V3.15C54.7775 3.717 54.8986 4.12912 55.1407 4.38637C55.388 4.64362 55.7354 4.77224 56.1828 4.77224C56.6301 4.77224 56.9749 4.64362 57.217 4.38637C57.4591 4.12912 57.5801 3.717 57.5801 3.15V0.0787498H58.5907V3.18937C58.5907 3.99262 58.3749 4.60687 57.9433 5.03212C57.517 5.45737 56.9275 5.66999 56.1749 5.66999Z" fill="#2F302C"/>
<path d="M61.4491 5.59124V0.0787498H63.7227C64.2122 0.0787498 64.6306 0.1575 64.978 0.315C65.3306 0.4725 65.6017 0.698249 65.7912 0.992249C65.9806 1.28625 66.0754 1.63537 66.0754 2.03962C66.0754 2.44387 65.9806 2.793 65.7912 3.087C65.6017 3.37575 65.3306 3.59887 64.978 3.75637C64.6306 3.90862 64.2122 3.98475 63.7227 3.98475H62.0175L62.4754 3.52012V5.59124H61.4491ZM65.0648 5.59124L63.6675 3.591H64.7648L66.1701 5.59124H65.0648ZM62.4754 3.63037L62.0175 3.14212H63.6754C64.128 3.14212 64.4675 3.045 64.6938 2.85075C64.9254 2.6565 65.0412 2.38612 65.0412 2.03962C65.0412 1.68787 64.9254 1.4175 64.6938 1.2285C64.4675 1.0395 64.128 0.944999 63.6754 0.944999H62.0175L62.4754 0.440999V3.63037Z" fill="#2F302C"/>
<path d="M69.592 2.37037H72.3394V3.213H69.592V2.37037ZM69.671 4.73287H72.7894V5.59124H68.6447V0.0787498H72.6789V0.937124H69.671V4.73287Z" fill="#2F302C"/>
<path d="M78.9575 5.59124V0.0787498H79.9838V5.59124H78.9575Z" fill="#2F302C"/>
<path d="M82.8996 5.59124V0.0787498H83.7443L87.2101 4.32337H86.7917V0.0787498H87.8101V5.59124H86.9654L83.4996 1.34662H83.918V5.59124H82.8996Z" fill="#2F302C"/>
<path d="M91.8331 5.59124V0.944999H90.0015V0.0787498H94.691V0.944999H92.8594V5.59124H91.8331Z" fill="#2F302C"/>
<path d="M97.8296 2.37037H100.577V3.213H97.8296V2.37037ZM97.9086 4.73287H101.027V5.59124H96.8822V0.0787498H100.916V0.937124H97.9086V4.73287Z" fill="#2F302C"/>
<path d="M103.592 5.59124V0.0787498H105.866C106.355 0.0787498 106.774 0.1575 107.121 0.315C107.474 0.4725 107.745 0.698249 107.934 0.992249C108.124 1.28625 108.218 1.63537 108.218 2.03962C108.218 2.44387 108.124 2.793 107.934 3.087C107.745 3.37575 107.474 3.59887 107.121 3.75637C106.774 3.90862 106.355 3.98475 105.866 3.98475H104.161L104.618 3.52012V5.59124H103.592ZM107.208 5.59124L105.811 3.591H106.908L108.313 5.59124H107.208ZM104.618 3.63037L104.161 3.14212H105.818C106.271 3.14212 106.611 3.045 106.837 2.85075C107.068 2.6565 107.184 2.38612 107.184 2.03962C107.184 1.68787 107.068 1.4175 106.837 1.2285C106.611 1.0395 106.271 0.944999 105.818 0.944999H104.161L104.618 0.440999V3.63037Z" fill="#2F302C"/>
<path d="M110.788 5.59124V0.0787498H111.814V5.59124H110.788Z" fill="#2F302C"/>
<path d="M117.319 5.66999C116.888 5.66999 116.49 5.59912 116.127 5.45737C115.764 5.31562 115.448 5.11874 115.18 4.86674C114.911 4.60949 114.704 4.31024 114.556 3.969C114.409 3.6225 114.335 3.2445 114.335 2.835C114.335 2.4255 114.409 2.05012 114.556 1.70887C114.704 1.36237 114.911 1.06312 115.18 0.811124C115.448 0.553875 115.764 0.354375 116.127 0.212625C116.49 0.0708751 116.885 0 117.311 0C117.743 0 118.138 0.0708751 118.496 0.212625C118.859 0.354375 119.175 0.553875 119.443 0.811124C119.711 1.06312 119.919 1.36237 120.067 1.70887C120.214 2.05012 120.288 2.4255 120.288 2.835C120.288 3.2445 120.214 3.6225 120.067 3.969C119.919 4.31549 119.711 4.61474 119.443 4.86674C119.175 5.11874 118.859 5.31562 118.496 5.45737C118.138 5.59912 117.746 5.66999 117.319 5.66999ZM117.311 4.77224C117.59 4.77224 117.848 4.72499 118.085 4.63049C118.322 4.53599 118.527 4.40212 118.701 4.22887C118.875 4.05037 119.009 3.84562 119.104 3.61462C119.204 3.37837 119.254 3.1185 119.254 2.835C119.254 2.5515 119.204 2.29425 119.104 2.06325C119.009 1.827 118.875 1.62225 118.701 1.449C118.527 1.2705 118.322 1.134 118.085 1.0395C117.848 0.944999 117.59 0.897749 117.311 0.897749C117.033 0.897749 116.775 0.944999 116.538 1.0395C116.306 1.134 116.101 1.2705 115.922 1.449C115.748 1.62225 115.611 1.827 115.511 2.06325C115.417 2.29425 115.369 2.5515 115.369 2.835C115.369 3.11325 115.417 3.3705 115.511 3.60675C115.611 3.843 115.748 4.05037 115.922 4.22887C116.096 4.40212 116.301 4.53599 116.538 4.63049C116.775 4.72499 117.033 4.77224 117.311 4.77224Z" fill="#2F302C"/>
<path d="M122.797 5.59124V0.0787498H125.07C125.56 0.0787498 125.978 0.1575 126.326 0.315C126.678 0.4725 126.949 0.698249 127.139 0.992249C127.328 1.28625 127.423 1.63537 127.423 2.03962C127.423 2.44387 127.328 2.793 127.139 3.087C126.949 3.37575 126.678 3.59887 126.326 3.75637C125.978 3.90862 125.56 3.98475 125.07 3.98475H123.365L123.823 3.52012V5.59124H122.797ZM126.413 5.59124L125.015 3.591H126.113L127.518 5.59124H126.413ZM123.823 3.63037L123.365 3.14212H125.023C125.476 3.14212 125.815 3.045 126.041 2.85075C126.273 2.6565 126.389 2.38612 126.389 2.03962C126.389 1.68787 126.273 1.4175 126.041 1.2285C125.815 1.0395 125.476 0.944999 125.023 0.944999H123.365L123.823 0.440999V3.63037Z" fill="#2F302C"/>
</svg>
