<svg width="138" height="17" viewBox="0 0 138 17" fill="none" xmlns="http://www.w3.org/2000/svg">
<path d="M4.35789 7.25287H12.0079V10.8675H4.35789V7.25287ZM4.68947 16.5375H0V0H13.0026V3.61462H4.68947V16.5375Z" fill="#2F302C"/>
<path d="M24.2669 16.8682C21.8195 16.8682 19.909 16.1989 18.5353 14.8601C17.1616 13.5214 16.4748 11.6235 16.4748 9.16649V0H21.1642V9.02474C21.1642 10.4422 21.4406 11.4581 21.9932 12.0724C22.5616 12.6866 23.3353 12.9937 24.3142 12.9937C25.2932 12.9937 26.059 12.6866 26.6116 12.0724C27.1642 11.4581 27.4406 10.4422 27.4406 9.02474V0H32.059V9.16649C32.059 11.6235 31.3721 13.5214 29.9985 14.8601C28.6248 16.1989 26.7142 16.8682 24.2669 16.8682Z" fill="#2F302C"/>
<path d="M36.6569 16.5375V0H44.2358C45.7516 0 47.0542 0.244125 48.1437 0.732374C49.249 1.22062 50.1016 1.92937 50.7016 2.85862C51.3016 3.77212 51.6016 4.85887 51.6016 6.11887C51.6016 7.36312 51.3016 8.44199 50.7016 9.35549C50.1016 10.2532 49.249 10.9462 48.1437 11.4345C47.0542 11.907 45.7516 12.1432 44.2358 12.1432H39.2621L41.3463 10.1824V16.5375H36.6569ZM46.9121 16.5375L42.7911 10.5131H47.7884L51.9332 16.5375H46.9121ZM41.3463 10.6785L39.2621 8.52861H43.9516C44.9306 8.52861 45.6569 8.31599 46.1306 7.89074C46.62 7.46549 46.8648 6.87487 46.8648 6.11887C46.8648 5.34712 46.62 4.74862 46.1306 4.32337C45.6569 3.89812 44.9306 3.6855 43.9516 3.6855H39.2621L41.3463 1.53562V10.6785Z" fill="#2F302C"/>
<path d="M55.6098 16.5375V0H59.4703L68.6124 11.0092H66.7887V0H71.3835V16.5375H67.5229L58.3808 5.52824H60.2045V16.5375H55.6098Z" fill="#2F302C"/>
<path d="M76.1124 16.5375V0H80.8018V16.5375H76.1124Z" fill="#2F302C"/>
<path d="M89.0882 16.5375V3.70912H83.9961V0H98.8461V3.70912H93.7776V16.5375H89.0882Z" fill="#2F302C"/>
<path d="M109.41 16.8682C106.962 16.8682 105.052 16.1989 103.678 14.8601C102.305 13.5214 101.618 11.6235 101.618 9.16649V0H106.307V9.02474C106.307 10.4422 106.583 11.4581 107.136 12.0724C107.705 12.6866 108.478 12.9937 109.457 12.9937C110.436 12.9937 111.202 12.6866 111.755 12.0724C112.307 11.4581 112.583 10.4422 112.583 9.02474V0H117.202V9.16649C117.202 11.6235 116.515 13.5214 115.141 14.8601C113.768 16.1989 111.857 16.8682 109.41 16.8682Z" fill="#2F302C"/>
<path d="M121.8 16.5375V0H129.379C130.894 0 132.197 0.244125 133.287 0.732374C134.392 1.22062 135.244 1.92937 135.844 2.85862C136.444 3.77212 136.744 4.85887 136.744 6.11887C136.744 7.36312 136.444 8.44199 135.844 9.35549C135.244 10.2532 134.392 10.9462 133.287 11.4345C132.197 11.907 130.894 12.1432 129.379 12.1432H124.405L126.489 10.1824V16.5375H121.8ZM132.055 16.5375L127.934 10.5131H132.931L137.076 16.5375H132.055ZM126.489 10.6785L124.405 8.52861H129.094C130.073 8.52861 130.8 8.31599 131.273 7.89074C131.763 7.46549 132.008 6.87487 132.008 6.11887C132.008 5.34712 131.763 4.74862 131.273 4.32337C130.8 3.89812 130.073 3.6855 129.094 3.6855H124.405L126.489 1.53562V10.6785Z" fill="#2F302C"/>
</svg>
